<mxfile host="app.diagrams.net" agent="Mozilla/5.0 (Windows NT 10.0; Win64; x64) AppleWebKit/537.36 (KHTML, like Gecko) Chrome/132.0.0.0 Safari/537.36" version="26.0.14">
  <diagram name="第 1 页" id="jytu0LdmU6QowjzDd2N_">
    <mxGraphModel dx="913" dy="567" grid="1" gridSize="10" guides="1" tooltips="1" connect="1" arrows="1" fold="1" page="1" pageScale="1" pageWidth="1169" pageHeight="827" math="0" shadow="0">
      <root>
        <mxCell id="0" />
        <mxCell id="1" parent="0" />
        <mxCell id="p_WKmSQKF_TFuKQEz0Kg-5" style="edgeStyle=orthogonalEdgeStyle;rounded=0;orthogonalLoop=1;jettySize=auto;html=1;" edge="1" parent="1" source="Ir1l8f4yJr67hJzMuIwX-1" target="Ir1l8f4yJr67hJzMuIwX-17">
          <mxGeometry relative="1" as="geometry" />
        </mxCell>
        <mxCell id="Ir1l8f4yJr67hJzMuIwX-1" value="START" style="strokeWidth=2;html=1;shape=mxgraph.flowchart.terminator;whiteSpace=wrap;fillColor=#f5f5f5;fontColor=#333333;strokeColor=#666666;" parent="1" vertex="1">
          <mxGeometry x="317.5" y="140" width="100" height="40" as="geometry" />
        </mxCell>
        <mxCell id="Ir1l8f4yJr67hJzMuIwX-2" value="END" style="strokeWidth=2;html=1;shape=mxgraph.flowchart.terminator;whiteSpace=wrap;fillColor=#f5f5f5;fontColor=#333333;strokeColor=#666666;" parent="1" vertex="1">
          <mxGeometry x="317.5" y="570" width="100" height="40" as="geometry" />
        </mxCell>
        <mxCell id="p_WKmSQKF_TFuKQEz0Kg-6" style="edgeStyle=orthogonalEdgeStyle;rounded=0;orthogonalLoop=1;jettySize=auto;html=1;" edge="1" parent="1" source="Ir1l8f4yJr67hJzMuIwX-17" target="p_WKmSQKF_TFuKQEz0Kg-3">
          <mxGeometry relative="1" as="geometry" />
        </mxCell>
        <mxCell id="Ir1l8f4yJr67hJzMuIwX-17" value="Priority 1. Rename with&lt;br&gt;datetime from filename" style="rounded=1;whiteSpace=wrap;html=1;absoluteArcSize=1;arcSize=14;strokeWidth=2;fillColor=#d5e8d4;strokeColor=#82b366;" parent="1" vertex="1">
          <mxGeometry x="280" y="240" width="175" height="60" as="geometry" />
        </mxCell>
        <mxCell id="p_WKmSQKF_TFuKQEz0Kg-7" style="edgeStyle=orthogonalEdgeStyle;rounded=0;orthogonalLoop=1;jettySize=auto;html=1;" edge="1" parent="1" source="p_WKmSQKF_TFuKQEz0Kg-3" target="p_WKmSQKF_TFuKQEz0Kg-4">
          <mxGeometry relative="1" as="geometry" />
        </mxCell>
        <mxCell id="p_WKmSQKF_TFuKQEz0Kg-3" value="Priority 2. Rename with&lt;br&gt;EXIF Info" style="rounded=1;whiteSpace=wrap;html=1;absoluteArcSize=1;arcSize=14;strokeWidth=2;fillColor=#dae8fc;strokeColor=#6c8ebf;" vertex="1" parent="1">
          <mxGeometry x="280" y="350" width="175" height="60" as="geometry" />
        </mxCell>
        <mxCell id="p_WKmSQKF_TFuKQEz0Kg-8" style="edgeStyle=orthogonalEdgeStyle;rounded=0;orthogonalLoop=1;jettySize=auto;html=1;" edge="1" parent="1" source="p_WKmSQKF_TFuKQEz0Kg-4" target="Ir1l8f4yJr67hJzMuIwX-2">
          <mxGeometry relative="1" as="geometry" />
        </mxCell>
        <mxCell id="p_WKmSQKF_TFuKQEz0Kg-4" value="Priority 3. Rename with&lt;br&gt;metadata or file attributes" style="rounded=1;whiteSpace=wrap;html=1;absoluteArcSize=1;arcSize=14;strokeWidth=2;fillColor=#fff2cc;strokeColor=#d6b656;" vertex="1" parent="1">
          <mxGeometry x="280" y="460" width="175" height="60" as="geometry" />
        </mxCell>
        <mxCell id="p_WKmSQKF_TFuKQEz0Kg-9" value="" style="strokeWidth=2;html=1;shape=mxgraph.flowchart.annotation_2;align=left;labelPosition=right;pointerEvents=1;fillColor=#d5e8d4;strokeColor=#82b366;" vertex="1" parent="1">
          <mxGeometry x="463" y="220" width="50" height="100" as="geometry" />
        </mxCell>
        <mxCell id="p_WKmSQKF_TFuKQEz0Kg-10" value="&lt;b&gt;force_rename:&lt;/b&gt;&amp;nbsp;Disabled by default.&lt;br&gt;&lt;div style=&quot;&quot;&gt;&lt;span style=&quot;background-color: transparent; color: light-dark(rgb(0, 0, 0), rgb(255, 255, 255));&quot;&gt;Will skip by default if the filename is already in the desired format.&lt;/span&gt;&lt;/div&gt;" style="text;html=1;align=left;verticalAlign=middle;whiteSpace=wrap;rounded=0;fillColor=#d5e8d4;strokeColor=#82b366;" vertex="1" parent="1">
          <mxGeometry x="513" y="230" width="400" height="30" as="geometry" />
        </mxCell>
        <mxCell id="p_WKmSQKF_TFuKQEz0Kg-11" value="&lt;b&gt;disable_regex&lt;/b&gt;: Disabled by default. It tries to rename using the timestamp in the filename. Skip this step by setting this option to TRUE." style="text;html=1;align=left;verticalAlign=middle;whiteSpace=wrap;rounded=0;fillColor=#d5e8d4;strokeColor=#82b366;" vertex="1" parent="1">
          <mxGeometry x="513" y="280" width="400" height="30" as="geometry" />
        </mxCell>
        <mxCell id="p_WKmSQKF_TFuKQEz0Kg-12" value="" style="strokeWidth=2;html=1;shape=mxgraph.flowchart.annotation_2;align=left;labelPosition=right;pointerEvents=1;fillColor=#dae8fc;strokeColor=#6c8ebf;" vertex="1" parent="1">
          <mxGeometry x="463" y="350" width="50" height="60" as="geometry" />
        </mxCell>
        <mxCell id="p_WKmSQKF_TFuKQEz0Kg-13" value="Try to read EXIF&amp;nbsp;DateTimeOriginal data from photo files" style="text;html=1;align=left;verticalAlign=middle;whiteSpace=wrap;rounded=0;fillColor=#dae8fc;strokeColor=#6c8ebf;" vertex="1" parent="1">
          <mxGeometry x="513" y="365" width="400" height="30" as="geometry" />
        </mxCell>
        <mxCell id="p_WKmSQKF_TFuKQEz0Kg-14" value="" style="strokeWidth=2;html=1;shape=mxgraph.flowchart.annotation_2;align=left;labelPosition=right;pointerEvents=1;fillColor=#fff2cc;strokeColor=#d6b656;" vertex="1" parent="1">
          <mxGeometry x="463" y="440" width="50" height="100" as="geometry" />
        </mxCell>
        <mxCell id="p_WKmSQKF_TFuKQEz0Kg-15" value="Step 1. Try to read&amp;nbsp;&lt;b&gt;metadata&lt;/b&gt; from media files" style="text;html=1;align=left;verticalAlign=middle;whiteSpace=wrap;rounded=0;fillColor=#fff2cc;strokeColor=#d6b656;" vertex="1" parent="1">
          <mxGeometry x="513" y="450" width="400" height="30" as="geometry" />
        </mxCell>
        <mxCell id="p_WKmSQKF_TFuKQEz0Kg-16" value="Step 2. Try to compare files attributes" style="text;html=1;align=left;verticalAlign=middle;whiteSpace=wrap;rounded=0;fillColor=#fff2cc;strokeColor=#d6b656;" vertex="1" parent="1">
          <mxGeometry x="513" y="500" width="400" height="30" as="geometry" />
        </mxCell>
      </root>
    </mxGraphModel>
  </diagram>
</mxfile>
